{"title":"TeensLoveHugeCocks - Dakota James 09AUG.2014","uid":10729405,"size":745209100,"categoryP":"porn","categoryS":"movies","magnet":"?xt=urn:btih:43515b9314eca82aac47247fe4e24cb5d18f62b8&amp;dn=TeensLoveHugeCocks+-+Dakota+James+09AUG.2014&amp;tr=udp%3A%2F%2Ftracker.openbittorrent.com%3A80&amp;tr=udp%3A%2F%2Fopen.demonii.com%3A1337&amp;tr=udp%3A%2F%2Ftracker.coppersurfer.tk%3A6969&amp;tr=udp%3A%2F%2Fexodus.desync.com%3A6969","seeders":0,"leechers":1,"uploader":"iH2OSO4","files":-1,"time":1407607222,"description":"This week we have the super cute Dakotajames. She was very excited to get that huge cock in her mouth and pussy. She started out by undressing and revealing her juicy tits and round sexy ass. She shook that ass in amazing fashion. She began playing with her pussy and got it nice and wet. Chris joined the party and soon after she was spread out on the couch, getting her pussy munched on. She was amazed and very turned on by the size of his cock. She sucked and fucked that cock. She got her tight little pussy pounded and got man juice all over her pretty face.\n\nGeneral\n\nSOURCE :  &lt;a href=&quot; http://nuscotower.com/i/5vhmjg.html&quot; rel=&quot;nofollow&quot; target=&quot;_NEW&quot;&gt; http://nuscotower.com/i/5vhmjg.html&lt;/a&gt;\n\nTeensLoveHugeCocks - Dakota James 09AUG.2014.mp4\nFormat                           : MPEG-4\nFormat profile                   : Base Media\nCodec ID                         : isom\nFile size                        : 711 MiB\nDuration                         : 42mn 48s\nOverall bit rate                 : 2 321 Kbps\nEncoded date                     : UTC 2014-08-09 15:52:44\nTagged date                      : UTC 2014-08-09 15:52:44\n\nVideo\nID                               : 1\nFormat                           : MPEG-4 Visual\nFormat profile                   : Simple@L1\nFormat settings, BVOP            : No\nFormat settings, QPel            : No\nFormat settings, GMC             : No warppoints\nFormat settings, Matrix          : Default (H.263)\nCodec ID                         : 20\nDuration                         : 42mn 48s\nBit rate mode                    : Variable\nBit rate                         : 2 212 Kbps\nMaximum bit rate                 : 4 573 Kbps\nWidth                            : 768 pixels\nHeight                           : 432 pixels\nDisplay aspect ratio             : 16:9\nFrame rate mode                  : Constant\nFrame rate                       : 29.970 fps\nColor space                      : YUV\nChroma subsampling               : 4:2:0\nBit depth                        : 8 bits\nScan type                        : Progressive\nCompression mode                 : Lossy\nBits/(Pixel*Frame)               : 0.222\nStream size                      : 677 MiB (95%)\nWriting library                  : Lavc53.8.0\nEncoded date                     : UTC 2014-08-09 15:52:44\nTagged date                      : UTC 2014-08-09 15:53:12\n\nAudio\nID                               : 2\nFormat                           : AAC\nFormat/Info                      : Advanced Audio Codec\nFormat profile                   : LC\nCodec ID                         : 40\nDuration                         : 42mn 48s\nBit rate mode                    : Variable\nBit rate                         : 106 Kbps\nMaximum bit rate                 : 120 Kbps\nChannel(s)                       : 2 channels\nChannel positions                : Front: L R\nSampling rate                    : 44.1 KHz\nCompression mode                 : Lossy\nStream size                      : 32.5 MiB (5%)\nEncoded date                     : UTC 2014-08-09 15:53:05\nTagged date                      : UTC 2014-08-09 15:53:12\n","torrent":{"xt":"urn:btih:43515b9314eca82aac47247fe4e24cb5d18f62b8","amp;dn":"TeensLoveHugeCocks+-+Dakota+James+09AUG.2014","amp;tr":["udp%3A%2F%2Ftracker.openbittorrent.com%3A80","udp%3A%2F%2Fopen.demonii.com%3A1337","udp%3A%2F%2Ftracker.coppersurfer.tk%3A6969","udp%3A%2F%2Fexodus.desync.com%3A6969"],"infoHash":"43515b9314eca82aac47247fe4e24cb5d18f62b8","infoHashBuffer":{"type":"Buffer","data":[67,81,91,147,20,236,168,42,172,71,36,127,228,226,76,181,209,143,98,184]},"announce":[],"urlList":[]}}